Coordinates
version=1
nRows=31
nColumns=34
inDegrees=no

Units are S.I. units (second, meters, Newtons, ...)
If the header above contains a line with 'inDegrees', this indicates whether rotational values are in degrees (yes) or radians (no).

endheader
time	pelvis_tilt	pelvis_list	pelvis_rotation	pelvis_tx	pelvis_ty	pelvis_tz	hip_flexion_r	hip_adduction_r	hip_rotation_r	knee_angle_r	ankle_angle_r	subtalar_angle_r	mtp_angle_r	hip_flexion_l	hip_adduction_l	hip_rotation_l	knee_angle_l	ankle_angle_l	subtalar_angle_l	mtp_angle_l	lumbar_extension	lumbar_bending	lumbar_rotation	arm_flex_r	arm_add_r	arm_rot_r	elbow_flex_r	pro_sup_r	arm_flex_l	arm_add_l	arm_rot_l	elbow_flex_l	pro_sup_l
0	-0.0752522	-0.0021729	-0.0207271	-0.149559	0.95959	-0.603033	0.0228845	-0.0702974	0.166004	0.022054	0.111018	-0.232491	0	0.0135338	-0.0686124	0.136996	0.00739959	0.0841242	-0.264175	0	-0.0196846	-0.000836126	-0.0618905	-0.0613485	-0.158889	0.0672818	0.651979	2.09	-0.0885395	-0.155828	0.0261264	0.617347	2.09
0.01	-0.0752085	-0.00214926	-0.0206912	-0.149559	0.959594	-0.603037	0.0228244	-0.0703278	0.165989	0.022035	0.110922	-0.23261	0	0.0134952	-0.068582	0.137061	0.0074041	0.0841002	-0.264186	0	-0.0197386	-0.000861647	-0.0619194	-0.0613362	-0.158873	0.0672216	0.651961	2.09	-0.0885172	-0.155844	0.0261854	0.617329	2.09
0.02	-0.0751653	-0.00215162	-0.020684	-0.149559	0.959598	-0.603038	0.0227828	-0.0703226	0.166046	0.0220451	0.110829	-0.232788	0	0.0134479	-0.0685836	0.137097	0.00740161	0.0840915	-0.264203	0	-0.0197891	-0.000859646	-0.0619284	-0.0612953	-0.15888	0.0672857	0.651879	2.09	-0.0884982	-0.15587	0.0262998	0.617309	2.09
0.03	-0.0750289	-0.00231254	-0.0207889	-0.14956	0.959614	-0.603046	0.0227842	-0.0701887	0.166401	0.0223543	0.11077	-0.233071	0	0.0132449	-0.0687509	0.137041	0.00741057	0.0842175	-0.264264	0	-0.0198546	-0.000522692	-0.0617995	-0.0611217	-0.159017	0.0678842	0.651226	2.09	-0.0883786	-0.155877	0.0266112	0.617301	2.09
0.04	-0.0749771	-0.00230957	-0.020758	-0.149554	0.959617	-0.603062	0.022689	-0.0702148	0.166401	0.0222985	0.110697	-0.232856	0	0.0131665	-0.0687175	0.136882	0.00735455	0.0842554	-0.264238	0	-0.0198811	-0.00046185	-0.0617974	-0.0611341	-0.159107	0.0680425	0.651074	2.09	-0.0883389	-0.155657	0.026401	0.617259	2.09
0.05	-0.0748859	-0.00216766	-0.0207	-0.149547	0.959616	-0.60309	0.0225929	-0.0703959	0.166135	0.0223181	0.110748	-0.232589	0	0.0130807	-0.0685317	0.136789	0.00731693	0.0842652	-0.26405	0	-0.0199573	-0.000562486	-0.0618956	-0.061113	-0.159166	0.0681218	0.650979	2.09	-0.0883752	-0.155475	0.0260866	0.61723	2.09
0.06	-0.0748082	-0.00194152	-0.0206486	-0.149534	0.959612	-0.603103	0.0225797	-0.0706517	0.165874	0.0224895	0.110965	-0.232486	0	0.0130152	-0.0682857	0.136727	0.00733554	0.0843917	-0.263647	0	-0.0200163	-0.000761163	-0.0620289	-0.0611088	-0.159079	0.0682225	0.650904	2.09	-0.0884686	-0.155465	0.0259256	0.617216	2.09
0.07	-0.0748038	-0.00181481	-0.0205982	-0.149523	0.959607	-0.603095	0.0225807	-0.0707784	0.165887	0.0225384	0.111081	-0.232586	0	0.0130052	-0.0681694	0.136726	0.00735716	0.0845048	-0.263339	0	-0.0199996	-0.000837876	-0.0620062	-0.0612534	-0.158983	0.0682596	0.650997	2.09	-0.0884446	-0.15559	0.0262135	0.617102	2.09
0.08	-0.0748136	-0.00178499	-0.0205091	-0.14952	0.959605	-0.603088	0.0224967	-0.0708075	0.165769	0.0223761	0.111209	-0.232475	0	0.0129746	-0.0681456	0.136761	0.00726982	0.0844259	-0.263308	0	-0.0199855	-0.000816222	-0.0619273	-0.0614657	-0.159009	0.0684783	0.651243	2.09	-0.0883316	-0.155715	0.0265927	0.616969	2.09
0.09	-0.0748049	-0.00181558	-0.0203841	-0.149516	0.959602	-0.603101	0.0223504	-0.070804	0.165393	0.0221644	0.111394	-0.2321	0	0.0128673	-0.0681863	0.136832	0.00704886	0.0842652	-0.263454	0	-0.0199982	-0.000724614	-0.0619114	-0.0616801	-0.159099	0.0688222	0.651537	2.09	-0.0882531	-0.155722	0.0265599	0.616915	2.09
0.1	-0.0747919	-0.00183846	-0.0202776	-0.14951	0.959597	-0.603124	0.0222303	-0.0708236	0.165188	0.0220336	0.111368	-0.231959	0	0.0127503	-0.0682141	0.136934	0.00685353	0.0842219	-0.263494	0	-0.0200361	-0.000600868	-0.0619078	-0.0618694	-0.159119	0.0689105	0.651772	2.09	-0.0882125	-0.155588	0.0261905	0.616866	2.09
0.11	-0.0747746	-0.00182673	-0.0202233	-0.14951	0.959588	-0.603139	0.0221803	-0.070854	0.165225	0.0219867	0.111177	-0.23213	0	0.0127166	-0.0681647	0.137041	0.00681853	0.0842566	-0.263503	0	-0.0201242	-0.000508055	-0.0619021	-0.0619716	-0.159073	0.068896	0.651964	2.09	-0.0881996	-0.155411	0.0258001	0.616793	2.09
0.12	-0.074778	-0.00174092	-0.0202153	-0.14952	0.959576	-0.603144	0.0222478	-0.0709424	0.165431	0.0220553	0.111021	-0.232572	0	0.0128302	-0.068018	0.137046	0.00696529	0.084276	-0.263595	0	-0.020211	-0.000542195	-0.0619266	-0.0619227	-0.158987	0.0689766	0.651959	2.09	-0.0882218	-0.155355	0.0256178	0.616769	2.09
0.13	-0.0747983	-0.00161619	-0.0201963	-0.149521	0.959567	-0.603158	0.022287	-0.0711127	0.165764	0.0220677	0.110766	-0.233276	0	0.0129301	-0.0678687	0.136974	0.00706305	0.0842004	-0.26371	0	-0.0202385	-0.000641679	-0.0619816	-0.0618503	-0.158934	0.0692059	0.65176	2.09	-0.0882795	-0.155388	0.0254862	0.616809	2.09
0.14	-0.0747856	-0.00163859	-0.0201622	-0.149503	0.959564	-0.603174	0.0221357	-0.0711487	0.166011	0.0218525	0.110371	-0.233691	0	0.0128661	-0.0679001	0.136927	0.0070101	0.0842062	-0.263735	0	-0.0202575	-0.000572316	-0.0619921	-0.0618996	-0.158933	0.0694099	0.651627	2.09	-0.0883423	-0.155454	0.0255243	0.616819	2.09
0.15	-0.0747824	-0.00170916	-0.0201536	-0.149493	0.959559	-0.603176	0.0220185	-0.0710753	0.166083	0.0216685	0.110218	-0.233651	0	0.0128681	-0.067952	0.136961	0.00708126	0.0844038	-0.26375	0	-0.0202997	-0.000464076	-0.0619669	-0.0619136	-0.158889	0.0696298	0.651512	2.09	-0.0883591	-0.155568	0.0258167	0.616736	2.09
0.16	-0.0747979	-0.00167624	-0.020155	-0.149498	0.959552	-0.603175	0.0220537	-0.0710815	0.165911	0.0217162	0.110508	-0.233324	0	0.0129232	-0.0679183	0.137042	0.00715908	0.0845212	-0.263693	0	-0.0203552	-0.000487935	-0.061943	-0.0618276	-0.158743	0.0697714	0.651284	2.09	-0.0883175	-0.155562	0.0258845	0.616582	2.09
0.17	-0.0747927	-0.00162036	-0.0201344	-0.149502	0.959556	-0.603184	0.022085	-0.071158	0.16569	0.021798	0.110689	-0.233159	0	0.0128564	-0.0679134	0.137065	0.00701468	0.0843826	-0.263534	0	-0.0204236	-0.000538629	-0.0619307	-0.0617739	-0.158581	0.0697261	0.651094	2.09	-0.0882822	-0.155381	0.0256167	0.616475	2.09
0.18	-0.0747643	-0.00163723	-0.0201031	-0.149503	0.959571	-0.603194	0.0220483	-0.0711766	0.165564	0.0217857	0.110589	-0.233155	0	0.0127286	-0.06796	0.137038	0.00680097	0.0842109	-0.263391	0	-0.0205172	-0.000530805	-0.0619524	-0.0617589	-0.158459	0.0696332	0.651004	2.09	-0.0882796	-0.155276	0.0254483	0.616442	2.09
0.19	-0.0747049	-0.00172333	-0.0201112	-0.149502	0.959584	-0.603187	0.0219523	-0.0710831	0.165654	0.0217085	0.110376	-0.233347	0	0.0126233	-0.0680281	0.137066	0.00672209	0.0842452	-0.263472	0	-0.0206687	-0.000471866	-0.0619913	-0.0617342	-0.158375	0.0697392	0.651044	2.09	-0.0883028	-0.155414	0.0256835	0.616476	2.09
0.2	-0.0746595	-0.00177633	-0.0201892	-0.149507	0.959586	-0.603176	0.0219182	-0.0710004	0.16588	0.0216931	0.110374	-0.233627	0	0.0125691	-0.0680622	0.137104	0.00672597	0.0843599	-0.263784	0	-0.0208229	-0.000438129	-0.0619976	-0.0616445	-0.158333	0.0701657	0.651057	2.09	-0.0883284	-0.15558	0.0259627	0.61648	2.09
0.21	-0.0746699	-0.0018134	-0.020288	-0.149516	0.959582	-0.603179	0.0219731	-0.0709486	0.165988	0.0217063	0.11042	-0.233791	0	0.0125169	-0.06811	0.136968	0.00659746	0.0842552	-0.264017	0	-0.0209145	-0.000402124	-0.0619711	-0.0615464	-0.158352	0.0703629	0.65104	2.09	-0.0883618	-0.155564	0.0259674	0.616467	2.09
0.22	-0.0746869	-0.00182374	-0.0202993	-0.149516	0.959581	-0.603179	0.0220017	-0.0709361	0.165967	0.0217212	0.110439	-0.233737	0	0.0125239	-0.0681238	0.136923	0.00657331	0.0842249	-0.263993	0	-0.0208998	-0.000386002	-0.0619424	-0.0615779	-0.158328	0.0701912	0.651093	2.09	-0.0883548	-0.155539	0.0258975	0.616467	2.09
0.23	-0.0747137	-0.00183644	-0.0203034	-0.149517	0.959579	-0.60318	0.0220397	-0.0709231	0.165914	0.0217379	0.110475	-0.233636	0	0.0125408	-0.0681411	0.136856	0.00654831	0.084234	-0.26387	0	-0.0208746	-0.000363123	-0.0619015	-0.0616458	-0.158291	0.0699002	0.651208	2.09	-0.0883359	-0.15549	0.0257585	0.61645	2.09
0.24	-0.0748093	-0.00181458	-0.0202603	-0.149513	0.959596	-0.603229	0.0220997	-0.0709752	0.165848	0.0217557	0.110437	-0.233584	0	0.0125163	-0.0681628	0.13691	0.00633256	0.0840513	-0.263492	0	-0.0209336	-0.000352633	-0.0617704	-0.0618584	-0.158393	0.069678	0.651509	2.09	-0.0883174	-0.155144	0.0253774	0.616202	2.09
0.25	-0.0747576	-0.00175649	-0.0202833	-0.14954	0.959608	-0.603233	0.0220626	-0.0710297	0.165777	0.0216941	0.110292	-0.233553	0	0.0124213	-0.0681185	0.136998	0.0061704	0.0837945	-0.263419	0	-0.0211461	-0.000405634	-0.0617434	-0.0617634	-0.158352	0.0701863	0.651479	2.09	-0.0881998	-0.155129	0.0254241	0.616083	2.09
0.26	-0.074771	-0.00179892	-0.0203032	-0.149559	0.959603	-0.603235	0.0220791	-0.0709701	0.165716	0.0216285	0.110234	-0.233151	0	0.0123828	-0.0681763	0.137037	0.00602634	0.0835865	-0.263546	0	-0.0212793	-0.000417971	-0.0618932	-0.0615363	-0.158273	0.0704773	0.65133	2.09	-0.0882732	-0.155112	0.025419	0.616255	2.09
0.27	-0.0748657	-0.00192851	-0.0203314	-0.149554	0.959589	-0.603242	0.0221483	-0.0708446	0.165752	0.0215663	0.110417	-0.232662	0	0.0124102	-0.0683066	0.136866	0.00591884	0.0836049	-0.263679	0	-0.021252	-0.000325912	-0.06198	-0.0614315	-0.158216	0.0706954	0.651249	2.09	-0.0884226	-0.154938	0.0251604	0.616428	2.09
0.28	-0.0749211	-0.00199293	-0.0203503	-0.149544	0.959581	-0.603248	0.0221857	-0.0708082	0.165755	0.0215115	0.110544	-0.232709	0	0.0124202	-0.0683626	0.136676	0.00584106	0.0836575	-0.263716	0	-0.0212409	-0.000278702	-0.0619641	-0.0614537	-0.158214	0.0707453	0.651296	2.09	-0.0884902	-0.154794	0.0250042	0.616465	2.09
0.29	-0.0749221	-0.00198111	-0.0203263	-0.149545	0.95958	-0.60325	0.0221835	-0.0708188	0.165783	0.0215084	0.110471	-0.232891	0	0.0124243	-0.068349	0.136701	0.00583732	0.0836497	-0.263723	0	-0.021244	-0.000291294	-0.0619685	-0.0614877	-0.158178	0.0705591	0.651356	2.09	-0.0884844	-0.154795	0.0249948	0.616481	2.09
0.3	-0.0749404	-0.0019451	-0.0202679	-0.149546	0.959578	-0.603254	0.0222019	-0.0708562	0.165758	0.0215134	0.110391	-0.233095	0	0.0124634	-0.0683056	0.136805	0.00584873	0.0836258	-0.263789	0	-0.0212324	-0.000331813	-0.0620042	-0.0615277	-0.158115	0.070277	0.651423	2.09	-0.0884819	-0.154809	0.0250044	0.616516	2.09
